name C:/MyDriveSym/Projects/mobilecap/Data\Session20210827_0001\mocap\ForceDataProcessed\DJ2_forces.mot
datacolumns 28
datarows 13
range 2.03200000 2.03800000
endheader 
time	R_ground_force_vx	R_ground_force_vy	R_ground_force_vz	R_ground_force_px	R_ground_force_py	R_ground_force_pz	R_ground_torque_x	R_ground_torque_y	R_ground_torque_z	L_ground_force_vx	L_ground_force_vy	L_ground_force_vz	L_ground_force_px	L_ground_force_py	L_ground_force_pz	L_ground_torque_x	L_ground_torque_y	L_ground_torque_z	3_ground_force_vx	3_ground_force_vy	3_ground_force_vz	3_ground_force_px	3_ground_force_py	3_ground_force_pz	3_ground_torque_x	3_ground_torque_y	3_ground_torque_z	
          2.03200000	        -32.05331800	        681.31307600	        -75.07552000	         -0.15147700	          0.00600000	         -0.42012300	          0.00000000	         -6.95635800	          0.00000000	        -58.77361800	        704.82989500	         88.15176100	         -0.11814100	          0.00600000	         -0.75627900	          0.00000000	          5.72334400	          0.00000000	          0.00000000	          0.00000000	          0.00000000	          0.00000000	          0.00000000	          0.00000000	          0.00000000	          0.00000000	          0.00000000	
          2.03250000	        -32.46828800	        681.86596800	        -75.15444000	         -0.15132800	          0.00600000	         -0.42008400	          0.00000000	         -6.94027000	          0.00000000	        -59.00857400	        705.00281900	         88.02839500	         -0.11803600	          0.00600000	         -0.75627500	          0.00000000	          5.72919900	          0.00000000	          0.00000000	          0.00000000	          0.00000000	          0.00000000	          0.00000000	          0.00000000	          0.00000000	          0.00000000	          0.00000000	
          2.03300000	        -32.88176700	        682.40153500	        -75.23420400	         -0.15117900	          0.00600000	         -0.42004400	          0.00000000	         -6.92384500	          0.00000000	        -59.24329800	        705.16341900	         87.90198900	         -0.11793200	          0.00600000	         -0.75627100	          0.00000000	          5.73467900	          0.00000000	          0.00000000	          0.00000000	          0.00000000	          0.00000000	          0.00000000	          0.00000000	          0.00000000	          0.00000000	          0.00000000	
          2.03350000	        -33.29370800	        682.91986700	        -75.31476700	         -0.15103000	          0.00600000	         -0.42000400	          0.00000000	         -6.90709300	          0.00000000	        -59.47773200	        705.31169400	         87.77263800	         -0.11782800	          0.00600000	         -0.75626600	          0.00000000	          5.73978500	          0.00000000	          0.00000000	          0.00000000	          0.00000000	          0.00000000	          0.00000000	          0.00000000	          0.00000000	          0.00000000	          0.00000000	
          2.03400000	        -33.70412600	        683.42101300	        -75.39608000	         -0.15088100	          0.00600000	         -0.41996400	          0.00000000	         -6.89002000	          0.00000000	        -59.71184700	        705.44762900	         87.64043100	         -0.11772500	          0.00600000	         -0.75626200	          0.00000000	          5.74450700	          0.00000000	          0.00000000	          0.00000000	          0.00000000	          0.00000000	          0.00000000	          0.00000000	          0.00000000	          0.00000000	          0.00000000	
          2.03450000	        -34.11309100	        683.90498500	        -75.47808800	         -0.15073300	          0.00600000	         -0.41992400	          0.00000000	         -6.87262500	          0.00000000	        -59.94563500	        705.57119400	         87.50545500	         -0.11762200	          0.00600000	         -0.75625600	          0.00000000	          5.74883000	          0.00000000	          0.00000000	          0.00000000	          0.00000000	          0.00000000	          0.00000000	          0.00000000	          0.00000000	          0.00000000	          0.00000000	
          2.03500000	        -34.52072000	        684.37177700	        -75.56072400	         -0.15058600	          0.00600000	         -0.41988300	          0.00000000	         -6.85490000	          0.00000000	        -60.17910400	        705.68234500	         87.36779600	         -0.11752000	          0.00600000	         -0.75625100	          0.00000000	          5.75273900	          0.00000000	          0.00000000	          0.00000000	          0.00000000	          0.00000000	          0.00000000	          0.00000000	          0.00000000	          0.00000000	          0.00000000	
          2.03550000	        -34.92715400	        684.82139900	        -75.64391200	         -0.15043800	          0.00600000	         -0.41984300	          0.00000000	         -6.83683800	          0.00000000	        -60.41227000	        705.78102300	         87.22753900	         -0.11741800	          0.00600000	         -0.75624600	          0.00000000	          5.75622400	          0.00000000	          0.00000000	          0.00000000	          0.00000000	          0.00000000	          0.00000000	          0.00000000	          0.00000000	          0.00000000	          0.00000000	
          2.03600000	        -35.33255000	        685.25390600	        -75.72755800	         -0.15029100	          0.00600000	         -0.41980200	          0.00000000	         -6.81843500	          0.00000000	        -60.64514500	        705.86716100	         87.08475900	         -0.11731700	          0.00600000	         -0.75624000	          0.00000000	          5.75928800	          0.00000000	          0.00000000	          0.00000000	          0.00000000	          0.00000000	          0.00000000	          0.00000000	          0.00000000	          0.00000000	          0.00000000	
          2.03650000	        -35.73707700	        685.66939100	        -75.81155000	         -0.15014400	          0.00600000	         -0.41976200	          0.00000000	         -6.79968800	          0.00000000	        -60.87773900	        705.94069000	         86.93952500	         -0.11721700	          0.00600000	         -0.75623400	          0.00000000	          5.76194300	          0.00000000	          0.00000000	          0.00000000	          0.00000000	          0.00000000	          0.00000000	          0.00000000	          0.00000000	          0.00000000	          0.00000000	
          2.03700000	        -36.14091800	        686.06796100	        -75.89575400	         -0.14999700	          0.00600000	         -0.41972100	          0.00000000	         -6.78059600	          0.00000000	        -61.11005500	        706.00154400	         86.79189300	         -0.11711700	          0.00600000	         -0.75622700	          0.00000000	          5.76420800	          0.00000000	          0.00000000	          0.00000000	          0.00000000	          0.00000000	          0.00000000	          0.00000000	          0.00000000	          0.00000000	          0.00000000	
          2.03750000	        -36.54426000	        686.44972700	        -75.98002600	         -0.14985100	          0.00600000	         -0.41968100	          0.00000000	         -6.76116100	          0.00000000	        -61.34209900	        706.04967800	         86.64191100	         -0.11701800	          0.00600000	         -0.75622100	          0.00000000	          5.76610400	          0.00000000	          0.00000000	          0.00000000	          0.00000000	          0.00000000	          0.00000000	          0.00000000	          0.00000000	          0.00000000	          0.00000000	
          2.03800000	        -36.94728700	        686.81481200	        -76.06423100	         -0.14970500	          0.00600000	         -0.41964100	          0.00000000	         -6.74138000	          0.00000000	        -61.57389100	        706.08508400	         86.48961500	         -0.11692100	          0.00600000	         -0.75621400	          0.00000000	          5.76765400	          0.00000000	          0.00000000	          0.00000000	          0.00000000	          0.00000000	          0.00000000	          0.00000000	          0.00000000	          0.00000000	          0.00000000	
